<svg width="33" height="20" viewBox="0 0 33 20" fill="none" xmlns="http://www.w3.org/2000/svg">
<path opacity="0.7" d="M18.6244 1.34853L31.8422 8.7415C32.0554 8.86072 32.2328 9.03429 32.3563 9.24429C32.4798 9.45437 32.5449 9.69329 32.5449 9.93665C32.5449 10.18 32.4798 10.419 32.3563 10.629C32.2328 10.8391 32.0554 11.0126 31.8422 11.1319L18.6244 18.5248C18.0355 18.8541 17.3712 19.0272 16.6956 19.0272C16.0199 19.0272 15.3557 18.8541 14.7667 18.5248L1.54893 11.1319C1.33578 11.0126 1.15833 10.8391 1.03483 10.629C0.911331 10.419 0.846233 10.18 0.846233 9.93665C0.846233 9.69329 0.911331 9.45437 1.03483 9.24429C1.15833 9.03429 1.33578 8.86072 1.54893 8.7415L14.7667 1.34853C15.3557 1.01916 16.0199 0.846149 16.6956 0.846149C17.3712 0.846149 18.0355 1.01916 18.6244 1.34853Z" fill="#828DF8"/>
</svg>
