<svg width="25" height="14" viewBox="0 0 25 14" fill="none" xmlns="http://www.w3.org/2000/svg">
<path d="M14.6744 0.502469L23.9038 5.66459C24.117 5.78381 24.2944 5.95738 24.4178 6.16738C24.5413 6.37746 24.6064 6.61638 24.6064 6.85973C24.6064 7.10309 24.5413 7.34201 24.4178 7.55209C24.2944 7.76209 24.117 7.93566 23.9038 8.05488L14.6745 13.2172C14.0854 13.5467 13.4212 13.7198 12.7456 13.7198C12.0698 13.7198 11.4056 13.5467 10.8166 13.2172L1.5873 8.05488C1.37415 7.93566 1.1967 7.76209 1.0732 7.55209C0.949705 7.34201 0.884604 7.10309 0.884604 6.85973C0.884604 6.61638 0.949705 6.37746 1.0732 6.16738C1.1967 5.95738 1.37415 5.78381 1.5873 5.66459L10.8166 0.502469C11.4056 0.173011 12.0698 2.86102e-06 12.7456 2.86102e-06C13.4212 2.86102e-06 14.0854 0.173011 14.6744 0.502469Z" fill="#828DF8"/>
</svg>
